<svg width="705" height="1024" viewBox="0 0 705 1024" fill="none" xmlns="http://www.w3.org/2000/svg">
<path d="M58.8556 35.3075L0 0V70.615L58.8556 35.3075Z" fill="#27295C"/>
<path d="M58.8558 105.923L117.711 70.615L58.8558 35.3075V105.923Z" fill="white"/>
<path d="M58.8556 0H0L58.8556 35.3075V0Z" fill="#27295C"/>
<path d="M58.8556 35.3075L0 70.615L58.8556 105.923V35.3075Z" fill="#27295C"/>
<path d="M117.711 70.615V0L58.8558 35.3075L117.711 70.615Z" fill="white"/>
<path d="M117.711 0H58.8558V35.3075L117.711 0Z" fill="#225CDC"/>
<path d="M294.298 35.3075L235.443 0V70.615L294.298 35.3075Z" fill="#225CDC"/>
<path d="M294.298 105.923L353.154 70.615L294.298 35.3075V105.923Z" fill="white"/>
<path d="M294.298 0H235.443L294.298 35.3075V0Z" fill="#225CDC"/>
<path d="M294.298 35.3075L235.443 70.615L294.298 105.923V35.3075Z" fill="#225CDC"/>
<path d="M353.154 70.615V0L294.298 35.3075L353.154 70.615Z" fill="white"/>
<path d="M353.154 0H294.298V35.3075L353.154 0Z" fill="#27295C"/>
<path d="M176.586 35.3075L235.442 70.615V0L176.586 35.3075Z" fill="#27295C"/>
<path d="M176.587 0H117.711L176.587 35.3075V0Z" fill="white"/>
<path d="M176.586 105.923L235.442 70.615L176.586 35.3075V105.923Z" fill="#27295C"/>
<path d="M176.586 35.3075L235.442 0H176.586V35.3075Z" fill="#27295C"/>
<path d="M117.711 0V70.615L176.587 35.3075L117.711 0Z" fill="white"/>
<path d="M117.711 70.615L176.587 105.923V35.3075L117.711 70.615Z" fill="#225CDC"/>
<path d="M412.009 35.3075L353.154 0V70.615L412.009 35.3075Z" fill="white"/>
<path d="M412.009 105.923L470.865 70.615L412.009 35.3075V105.923Z" fill="#225CDC"/>
<path d="M412.009 0H353.154L412.009 35.3075V0Z" fill="white"/>
<path d="M412.009 35.3075L353.154 70.615L412.009 105.923V35.3075Z" fill="white"/>
<path d="M470.865 70.615V0L412.009 35.3075L470.865 70.615Z" fill="#225CDC"/>
<path d="M470.865 0H412.009V35.3075L470.865 0Z" fill="#27295C"/>
<path d="M647.451 35.3075L588.595 0V70.615L647.451 35.3075Z" fill="#225CDC"/>
<path d="M647.451 105.923L706.307 70.615L647.451 35.3075V105.923Z" fill="white"/>
<path d="M647.451 0H588.595L647.451 35.3075V0Z" fill="#225CDC"/>
<path d="M647.451 35.3075L588.595 70.615L647.451 105.923V35.3075Z" fill="#225CDC"/>
<path d="M706.307 70.615V0L647.451 35.3075L706.307 70.615Z" fill="white"/>
<path d="M706.307 0H647.451V35.3075L706.307 0Z" fill="#27295C"/>
<path d="M529.74 35.3075L588.595 70.615V0L529.74 35.3075Z" fill="white"/>
<path d="M529.74 0H470.864L529.74 35.3075V0Z" fill="#225CDC"/>
<path d="M529.74 105.923L588.595 70.615L529.74 35.3075V105.923Z" fill="white"/>
<path d="M529.74 35.3075L588.595 0H529.74V35.3075Z" fill="white"/>
<path d="M470.864 0V70.615L529.74 35.3075L470.864 0Z" fill="#225CDC"/>
<path d="M470.864 70.615L529.74 105.923V35.3075L470.864 70.615Z" fill="#27295C"/>
<path d="M0 211.866L58.8556 176.558L0 141.23V211.866Z" fill="white"/>
<path d="M58.8556 176.558V105.922L0 141.23L58.8556 176.558Z" fill="white"/>
<path d="M58.8556 105.923L0 70.615V141.23L58.8556 105.923Z" fill="#27295C"/>
<path d="M235.443 141.23L294.298 176.558V105.922L235.443 141.23Z" fill="#27295C"/>
<path d="M235.442 70.615L176.587 105.923L235.442 141.23V70.615Z" fill="white"/>
<path d="M235.443 211.865L294.298 176.558L235.443 141.25V211.865Z" fill="#27295C"/>
<path d="M235.443 141.23L294.298 105.923L235.443 70.615V141.23Z" fill="#27295C"/>
<path d="M176.587 105.922V176.558L235.442 141.23L176.587 105.922Z" fill="white"/>
<path d="M176.587 176.558L235.442 211.865V141.25L176.587 176.558Z" fill="#225CDC"/>
<path d="M117.711 141.23L58.8558 105.922V176.558L117.711 141.23Z" fill="#27295C"/>
<path d="M117.712 211.866L176.587 176.558L117.712 141.23V211.866Z" fill="white"/>
<path d="M117.711 70.615L58.8558 105.923L117.711 141.23V70.615Z" fill="#27295C"/>
<path d="M117.711 141.23L58.8558 176.558L117.711 211.866V141.23Z" fill="#27295C"/>
<path d="M176.587 176.558V105.922L117.712 141.23L176.587 176.558Z" fill="white"/>
<path d="M176.587 105.923L117.712 70.615V141.23L176.587 105.923Z" fill="#225CDC"/>
<path d="M353.154 141.23L412.009 176.558V105.922L353.154 141.23Z" fill="white"/>
<path d="M353.153 70.615L294.298 105.923L353.153 141.23V70.615Z" fill="#225CDC"/>
<path d="M353.154 211.865L412.009 176.558L353.154 141.25V211.865Z" fill="white"/>
<path d="M353.154 141.23L412.009 105.923L353.154 70.615V141.23Z" fill="white"/>
<path d="M294.298 105.922V176.558L353.153 141.23L294.298 105.922Z" fill="#225CDC"/>
<path d="M294.298 176.558L353.153 211.865V141.25L294.298 176.558Z" fill="#27295C"/>
<path d="M588.596 141.23L647.452 176.558V105.922L588.596 141.23Z" fill="#27295C"/>
<path d="M588.596 70.615L529.74 105.923L588.596 141.23V70.615Z" fill="white"/>
<path d="M588.596 211.865L647.452 176.558L588.596 141.25V211.865Z" fill="#27295C"/>
<path d="M588.596 141.23L647.452 105.923L588.596 70.615V141.23Z" fill="#27295C"/>
<path d="M529.74 105.922V176.558L588.596 141.23L529.74 105.922Z" fill="white"/>
<path d="M529.74 176.558L588.596 211.865V141.25L529.74 176.558Z" fill="#225CDC"/>
<path d="M470.865 141.23L412.009 105.922V176.558L470.865 141.23Z" fill="#27295C"/>
<path d="M470.865 211.866L529.741 176.558L470.865 141.23V211.866Z" fill="white"/>
<path d="M470.865 70.615L412.009 105.923L470.865 141.23V70.615Z" fill="#27295C"/>
<path d="M470.865 141.23L412.009 176.558L470.865 211.866V141.23Z" fill="#27295C"/>
<path d="M529.741 176.558V105.922L470.865 141.23L529.741 176.558Z" fill="white"/>
<path d="M529.741 105.923L470.865 70.615V141.23L529.741 105.923Z" fill="#225CDC"/>
<path d="M706.307 70.615L647.451 105.923L706.307 141.23V70.615Z" fill="white"/>
<path d="M647.451 105.922V176.558L706.307 141.23L647.451 105.922Z" fill="white"/>
<path d="M647.451 176.558L706.307 211.865V141.25L647.451 176.558Z" fill="#27295C"/>
<path d="M58.8556 247.173L0 211.865V282.48L58.8556 247.173Z" fill="white"/>
<path d="M58.8558 317.788L117.711 282.48L58.8558 247.172V317.788Z" fill="#225CDC"/>
<path d="M58.8556 176.557L0 211.865L58.8556 247.173V176.557Z" fill="white"/>
<path d="M58.8556 247.172L0 282.48L58.8556 317.788V247.172Z" fill="white"/>
<path d="M117.711 282.48V211.865L58.8558 247.173L117.711 282.48Z" fill="#225CDC"/>
<path d="M117.711 211.865L58.8558 176.557V247.173L117.711 211.865Z" fill="#27295C"/>
<path d="M294.298 247.173L353.154 282.48V211.865L294.298 247.173Z" fill="#27295C"/>
<path d="M294.298 176.557L235.443 211.865L294.298 247.173V176.557Z" fill="white"/>
<path d="M294.298 317.788L353.154 282.48L294.298 247.172V317.788Z" fill="#27295C"/>
<path d="M294.298 247.173L353.154 211.865L294.298 176.557V247.173Z" fill="#27295C"/>
<path d="M235.443 211.865V282.48L294.298 247.173L235.443 211.865Z" fill="white"/>
<path d="M235.443 282.48L294.298 317.788V247.172L235.443 282.48Z" fill="#225CDC"/>
<path d="M176.587 247.173L117.711 211.865V282.48L176.587 247.173Z" fill="white"/>
<path d="M176.586 317.788L235.442 282.48L176.586 247.172V317.788Z" fill="#225CDC"/>
<path d="M176.587 176.557L117.711 211.865L176.587 247.173V176.557Z" fill="white"/>
<path d="M176.587 247.172L117.711 282.48L176.587 317.788V247.172Z" fill="white"/>
<path d="M235.442 282.48V211.865L176.586 247.173L235.442 282.48Z" fill="#225CDC"/>
<path d="M235.442 211.865L176.586 176.557V247.173L235.442 211.865Z" fill="#27295C"/>
<path d="M412.009 247.173L470.865 282.48V211.865L412.009 247.173Z" fill="#225CDC"/>
<path d="M412.009 176.557L353.154 211.865L412.009 247.173V176.557Z" fill="white"/>
<path d="M412.009 317.788L470.865 282.48L412.009 247.172V317.788Z" fill="#225CDC"/>
<path d="M412.009 247.173L470.865 211.865L412.009 176.557V247.173Z" fill="#225CDC"/>
<path d="M353.154 211.865V282.48L412.009 247.173L353.154 211.865Z" fill="white"/>
<path d="M353.154 282.48L412.009 317.788V247.172L353.154 282.48Z" fill="#27295C"/>
<path d="M647.451 247.173L706.307 282.48V211.865L647.451 247.173Z" fill="white"/>
<path d="M647.451 176.557L588.595 211.865L647.451 247.173V176.557Z" fill="#225CDC"/>
<path d="M647.451 317.788L706.307 282.48L647.451 247.172V317.788Z" fill="white"/>
<path d="M647.451 247.173L706.307 211.865L647.451 176.557V247.173Z" fill="white"/>
<path d="M588.595 211.865V282.48L647.451 247.173L588.595 211.865Z" fill="#225CDC"/>
<path d="M588.595 282.48L647.451 317.788V247.172L588.595 282.48Z" fill="#27295C"/>
<path d="M529.74 247.173L470.864 211.865V282.48L529.74 247.173Z" fill="white"/>
<path d="M529.74 317.788L588.595 282.48L529.74 247.172V317.788Z" fill="#225CDC"/>
<path d="M529.74 176.557L470.864 211.865L529.74 247.173V176.557Z" fill="white"/>
<path d="M529.74 247.172L470.864 282.48L529.74 317.788V247.172Z" fill="white"/>
<path d="M588.595 282.48V211.865L529.74 247.173L588.595 282.48Z" fill="#225CDC"/>
<path d="M588.595 211.865L529.74 176.557V247.173L588.595 211.865Z" fill="#27295C"/>
<path d="M0 423.73L58.8556 388.402L0 353.095V423.73Z" fill="white"/>
<path d="M58.8556 388.403V317.787L0 353.095L58.8556 388.403Z" fill="white"/>
<path d="M58.8556 317.788L0 282.48V353.095L58.8556 317.788Z" fill="#225CDC"/>
<path d="M235.443 353.095L294.298 388.423V317.787L235.443 353.095Z" fill="#225CDC"/>
<path d="M235.442 282.48L176.587 317.788L235.442 353.095V282.48Z" fill="white"/>
<path d="M235.443 423.73L294.298 388.423L235.443 353.095V423.73Z" fill="#225CDC"/>
<path d="M235.443 353.095L294.298 317.788L235.443 282.48V353.095Z" fill="#225CDC"/>
<path d="M176.587 317.787V388.423L235.442 353.095L176.587 317.787Z" fill="white"/>
<path d="M176.587 388.423L235.442 423.73V353.095L176.587 388.423Z" fill="#27295C"/>
<path d="M117.711 353.095L58.8558 317.787V388.403L117.711 353.095Z" fill="#27295C"/>
<path d="M117.712 423.73L176.587 388.402L117.712 353.095V423.73Z" fill="white"/>
<path d="M117.711 282.48L58.8558 317.788L117.711 353.095V282.48Z" fill="#27295C"/>
<path d="M117.711 353.095L58.8558 388.402L117.711 423.73V353.095Z" fill="#27295C"/>
<path d="M176.587 388.403V317.787L117.712 353.095L176.587 388.403Z" fill="white"/>
<path d="M176.587 317.788L117.712 282.48V353.095L176.587 317.788Z" fill="#225CDC"/>
<path d="M353.154 353.095L412.009 388.423V317.787L353.154 353.095Z" fill="#225CDC"/>
<path d="M353.153 282.48L294.298 317.788L353.153 353.095V282.48Z" fill="white"/>
<path d="M353.154 423.73L412.009 388.423L353.154 353.095V423.73Z" fill="#225CDC"/>
<path d="M353.154 353.095L412.009 317.788L353.154 282.48V353.095Z" fill="#225CDC"/>
<path d="M294.298 317.787V388.423L353.153 353.095L294.298 317.787Z" fill="white"/>
<path d="M294.298 388.423L353.153 423.73V353.095L294.298 388.423Z" fill="#27295C"/>
<path d="M588.596 353.095L529.74 317.787V388.403L588.596 353.095Z" fill="white"/>
<path d="M588.596 423.73L647.452 388.402L588.596 353.095V423.73Z" fill="#225CDC"/>
<path d="M588.596 282.48L529.74 317.788L588.596 353.095V282.48Z" fill="white"/>
<path d="M588.596 353.095L529.74 388.402L588.596 423.73V353.095Z" fill="white"/>
<path d="M647.452 388.403V317.787L588.596 353.095L647.452 388.403Z" fill="#225CDC"/>
<path d="M647.452 317.788L588.596 282.48V353.095L647.452 317.788Z" fill="#27295C"/>
<path d="M470.865 353.095L412.009 317.787V388.403L470.865 353.095Z" fill="white"/>
<path d="M470.865 423.73L529.741 388.402L470.865 353.095V423.73Z" fill="#225CDC"/>
<path d="M470.865 282.48L412.009 317.788L470.865 353.095V282.48Z" fill="white"/>
<path d="M470.865 353.095L412.009 388.402L470.865 423.73V353.095Z" fill="white"/>
<path d="M529.741 388.403V317.787L470.865 353.095L529.741 388.403Z" fill="#225CDC"/>
<path d="M529.741 317.788L470.865 282.48V353.095L529.741 317.788Z" fill="#27295C"/>
<path d="M706.307 282.48L647.451 317.788L706.307 353.095V282.48Z" fill="#225CDC"/>
<path d="M647.451 317.787V388.423L706.307 353.095L647.451 317.787Z" fill="#225CDC"/>
<path d="M647.451 388.423L706.307 423.73V353.095L647.451 388.423Z" fill="#27295C"/>
<path d="M58.8558 459.038L117.711 494.345V423.73L58.8558 459.038Z" fill="white"/>
<path d="M58.8556 388.422L0 423.73L58.8556 459.038V388.422Z" fill="#225CDC"/>
<path d="M58.8558 529.653L117.711 494.345L58.8558 459.037V529.653Z" fill="white"/>
<path d="M58.8558 459.038L117.711 423.73L58.8558 388.422V459.038Z" fill="white"/>
<path d="M0 423.73V494.345L58.8556 459.038L0 423.73Z" fill="#225CDC"/>
<path d="M0 494.345L58.8556 529.653V459.037L0 494.345Z" fill="#27295C"/>
<path d="M294.298 459.038L353.154 494.345V423.73L294.298 459.038Z" fill="#27295C"/>
<path d="M294.298 388.422L235.443 423.73L294.298 459.038V388.422Z" fill="white"/>
<path d="M294.298 529.653L353.154 494.345L294.298 459.037V529.653Z" fill="#27295C"/>
<path d="M294.298 459.038L353.154 423.73L294.298 388.422V459.038Z" fill="#27295C"/>
<path d="M235.443 423.73V494.345L294.298 459.038L235.443 423.73Z" fill="white"/>
<path d="M235.443 494.345L294.298 529.653V459.037L235.443 494.345Z" fill="#225CDC"/>
<path d="M176.587 459.038L117.711 423.73V494.345L176.587 459.038Z" fill="white"/>
<path d="M176.586 529.653L235.442 494.345L176.586 459.037V529.653Z" fill="#225CDC"/>
<path d="M176.587 388.422L117.711 423.73L176.587 459.038V388.422Z" fill="white"/>
<path d="M176.587 459.037L117.711 494.345L176.587 529.653V459.037Z" fill="white"/>
<path d="M235.442 494.345V423.73L176.586 459.038L235.442 494.345Z" fill="#225CDC"/>
<path d="M235.442 423.73L176.586 388.422V459.038L235.442 423.73Z" fill="#27295C"/>
<path d="M412.009 459.038L353.154 423.73V494.345L412.009 459.038Z" fill="#27295C"/>
<path d="M412.009 529.653L470.865 494.345L412.009 459.037V529.653Z" fill="white"/>
<path d="M412.009 388.422L353.154 423.73L412.009 459.038V388.422Z" fill="#27295C"/>
<path d="M412.009 459.037L353.154 494.345L412.009 529.653V459.037Z" fill="#27295C"/>
<path d="M470.865 494.345V423.73L412.009 459.038L470.865 494.345Z" fill="white"/>
<path d="M470.865 423.73L412.009 388.422V459.038L470.865 423.73Z" fill="#225CDC"/>
<path d="M647.451 459.038L706.307 494.345V423.73L647.451 459.038Z" fill="#225CDC"/>
<path d="M647.451 388.422L588.595 423.73L647.451 459.038V388.422Z" fill="white"/>
<path d="M647.451 529.653L706.307 494.345L647.451 459.037V529.653Z" fill="#225CDC"/>
<path d="M647.451 459.038L706.307 423.73L647.451 388.422V459.038Z" fill="#225CDC"/>
<path d="M588.595 423.73V494.345L647.451 459.038L588.595 423.73Z" fill="white"/>
<path d="M588.595 494.345L647.451 529.653V459.037L588.595 494.345Z" fill="#27295C"/>
<path d="M529.74 459.038L588.595 494.345V423.73L529.74 459.038Z" fill="#225CDC"/>
<path d="M529.74 388.422L470.864 423.73L529.74 459.038V388.422Z" fill="white"/>
<path d="M529.74 529.653L588.595 494.345L529.74 459.037V529.653Z" fill="#225CDC"/>
<path d="M529.74 459.038L588.595 423.73L529.74 388.422V459.038Z" fill="#225CDC"/>
<path d="M470.864 423.73V494.345L529.74 459.038L470.864 423.73Z" fill="white"/>
<path d="M470.864 494.345L529.74 529.653V459.037L470.864 494.345Z" fill="#27295C"/>
<path d="M0 564.96L58.8556 600.268V529.652L0 564.96Z" fill="#27295C"/>
<path d="M0 635.575L58.8556 600.268L0 564.96V635.575Z" fill="#27295C"/>
<path d="M0 564.96L58.8556 529.652L0 494.345V564.96Z" fill="#27295C"/>
<path d="M235.442 564.96L176.587 529.652V600.268L235.442 564.96Z" fill="#27295C"/>
<path d="M235.443 635.575L294.298 600.268L235.443 564.96V635.575Z" fill="white"/>
<path d="M235.442 494.345L176.587 529.652L235.442 564.96V494.345Z" fill="#27295C"/>
<path d="M235.442 564.96L176.587 600.268L235.442 635.575V564.96Z" fill="#27295C"/>
<path d="M294.298 600.268V529.652L235.443 564.96L294.298 600.268Z" fill="white"/>
<path d="M294.298 529.652L235.443 494.345V564.96L294.298 529.652Z" fill="#225CDC"/>
<path d="M117.712 564.96L176.587 600.268V529.652L117.712 564.96Z" fill="#225CDC"/>
<path d="M117.711 494.345L58.8558 529.652L117.711 564.96V494.345Z" fill="white"/>
<path d="M117.712 635.575L176.587 600.268L117.712 564.96V635.575Z" fill="#225CDC"/>
<path d="M117.712 564.96L176.587 529.652L117.712 494.345V564.96Z" fill="#225CDC"/>
<path d="M58.8558 529.652V600.268L117.711 564.96L58.8558 529.652Z" fill="white"/>
<path d="M58.8558 600.268L117.711 635.575V564.96L58.8558 600.268Z" fill="#27295C"/>
<path d="M353.153 564.96L294.298 529.652V600.268L353.153 564.96Z" fill="white"/>
<path d="M353.154 635.575L412.009 600.268L353.154 564.96V635.575Z" fill="#225CDC"/>
<path d="M353.153 494.345L294.298 529.652L353.153 564.96V494.345Z" fill="white"/>
<path d="M353.153 564.96L294.298 600.268L353.153 635.575V564.96Z" fill="white"/>
<path d="M412.009 600.268V529.652L353.154 564.96L412.009 600.268Z" fill="#225CDC"/>
<path d="M412.009 529.652L353.154 494.345V564.96L412.009 529.652Z" fill="#27295C"/>
<path d="M588.596 564.96L529.74 529.652V600.268L588.596 564.96Z" fill="#27295C"/>
<path d="M588.596 635.575L647.452 600.268L588.596 564.96V635.575Z" fill="white"/>
<path d="M588.596 494.345L529.74 529.652L588.596 564.96V494.345Z" fill="#27295C"/>
<path d="M588.596 564.96L529.74 600.268L588.596 635.575V564.96Z" fill="#27295C"/>
<path d="M647.452 600.268V529.652L588.596 564.96L647.452 600.268Z" fill="white"/>
<path d="M647.452 529.652L588.596 494.345V564.96L647.452 529.652Z" fill="#225CDC"/>
<path d="M470.865 564.96L529.741 600.268V529.652L470.865 564.96Z" fill="#225CDC"/>
<path d="M470.865 494.345L412.009 529.652L470.865 564.96V494.345Z" fill="white"/>
<path d="M470.865 635.575L529.741 600.268L470.865 564.96V635.575Z" fill="#225CDC"/>
<path d="M470.865 564.96L529.741 529.652L470.865 494.345V564.96Z" fill="#225CDC"/>
<path d="M412.009 529.652V600.268L470.865 564.96L412.009 529.652Z" fill="white"/>
<path d="M412.009 600.268L470.865 635.575V564.96L412.009 600.268Z" fill="#27295C"/>
<path d="M706.307 494.345L647.451 529.652L706.307 564.96V494.345Z" fill="white"/>
<path d="M647.451 529.652V600.268L706.307 564.96L647.451 529.652Z" fill="white"/>
<path d="M647.451 600.268L706.307 635.575V564.96L647.451 600.268Z" fill="#27295C"/>
<path d="M58.8556 670.906L0 635.578V706.213L58.8556 670.906Z" fill="#27295C"/>
<path d="M58.8558 741.52L117.711 706.213L58.8558 670.905V741.52Z" fill="white"/>
<path d="M58.8556 600.27L0 635.578L58.8556 670.906V600.27Z" fill="#27295C"/>
<path d="M58.8556 670.905L0 706.213L58.8556 741.52V670.905Z" fill="#27295C"/>
<path d="M117.711 706.213V635.578L58.8558 670.906L117.711 706.213Z" fill="white"/>
<path d="M117.711 635.578L58.8558 600.27V670.906L117.711 635.578Z" fill="#225CDC"/>
<path d="M294.298 670.906L235.443 635.578V706.213L294.298 670.906Z" fill="#27295C"/>
<path d="M294.298 741.52L353.154 706.213L294.298 670.905V741.52Z" fill="white"/>
<path d="M294.298 600.27L235.443 635.578L294.298 670.906V600.27Z" fill="#27295C"/>
<path d="M294.298 670.905L235.443 706.213L294.298 741.52V670.905Z" fill="#27295C"/>
<path d="M353.154 706.213V635.578L294.298 670.906L353.154 706.213Z" fill="white"/>
<path d="M353.154 635.578L294.298 600.27V670.906L353.154 635.578Z" fill="#225CDC"/>
<path d="M176.586 670.906L235.442 706.213V635.578L176.586 670.906Z" fill="#27295C"/>
<path d="M176.587 600.27L117.711 635.578L176.587 670.906V600.27Z" fill="white"/>
<path d="M176.586 741.52L235.442 706.213L176.586 670.905V741.52Z" fill="#27295C"/>
<path d="M176.586 670.906L235.442 635.578L176.586 600.27V670.906Z" fill="#27295C"/>
<path d="M117.711 635.578V706.213L176.587 670.906L117.711 635.578Z" fill="white"/>
<path d="M117.711 706.213L176.587 741.52V670.905L117.711 706.213Z" fill="#225CDC"/>
<path d="M412.009 670.906L353.154 635.578V706.213L412.009 670.906Z" fill="white"/>
<path d="M412.009 741.52L470.865 706.213L412.009 670.905V741.52Z" fill="#225CDC"/>
<path d="M412.009 600.27L353.154 635.578L412.009 670.906V600.27Z" fill="white"/>
<path d="M412.009 670.905L353.154 706.213L412.009 741.52V670.905Z" fill="white"/>
<path d="M470.865 706.213V635.578L412.009 670.906L470.865 706.213Z" fill="#225CDC"/>
<path d="M470.865 635.578L412.009 600.27V670.906L470.865 635.578Z" fill="#27295C"/>
<path d="M647.451 670.906L706.307 706.213V635.578L647.451 670.906Z" fill="#27295C"/>
<path d="M647.451 600.27L588.595 635.578L647.451 670.906V600.27Z" fill="white"/>
<path d="M647.451 741.52L706.307 706.213L647.451 670.905V741.52Z" fill="#27295C"/>
<path d="M647.451 670.906L706.307 635.578L647.451 600.27V670.906Z" fill="#27295C"/>
<path d="M588.595 635.578V706.213L647.451 670.906L588.595 635.578Z" fill="white"/>
<path d="M588.595 706.213L647.451 741.52V670.905L588.595 706.213Z" fill="#225CDC"/>
<path d="M529.74 670.906L588.595 706.213V635.578L529.74 670.906Z" fill="white"/>
<path d="M529.74 600.27L470.864 635.578L529.74 670.906V600.27Z" fill="#225CDC"/>
<path d="M529.74 741.52L588.595 706.213L529.74 670.905V741.52Z" fill="white"/>
<path d="M529.74 670.906L588.595 635.578L529.74 600.27V670.906Z" fill="white"/>
<path d="M470.864 635.578V706.213L529.74 670.906L470.864 635.578Z" fill="#225CDC"/>
<path d="M470.864 706.213L529.74 741.52V670.905L470.864 706.213Z" fill="#27295C"/>
<path d="M0 776.828L58.8556 812.135V741.52L0 776.828Z" fill="white"/>
<path d="M0 847.443L58.8556 812.135L0 776.828V847.443Z" fill="white"/>
<path d="M0 776.828L58.8556 741.52L0 706.213V776.828Z" fill="white"/>
<path d="M235.443 776.828L294.298 812.135V741.52L235.443 776.828Z" fill="#225CDC"/>
<path d="M235.442 706.213L176.587 741.52L235.442 776.828V706.213Z" fill="white"/>
<path d="M235.443 847.443L294.298 812.135L235.443 776.828V847.443Z" fill="#225CDC"/>
<path d="M235.443 776.828L294.298 741.52L235.443 706.213V776.828Z" fill="#225CDC"/>
<path d="M176.587 741.52V812.135L235.442 776.828L176.587 741.52Z" fill="white"/>
<path d="M176.587 812.135L235.442 847.443V776.828L176.587 812.135Z" fill="#27295C"/>
<path d="M117.711 776.828L58.8558 741.52V812.135L117.711 776.828Z" fill="white"/>
<path d="M117.712 847.443L176.587 812.135L117.712 776.828V847.443Z" fill="#225CDC"/>
<path d="M117.711 706.213L58.8558 741.52L117.711 776.828V706.213Z" fill="white"/>
<path d="M117.711 776.828L58.8558 812.135L117.711 847.443V776.828Z" fill="white"/>
<path d="M176.587 812.135V741.52L117.712 776.828L176.587 812.135Z" fill="#225CDC"/>
<path d="M176.587 741.52L117.712 706.213V776.828L176.587 741.52Z" fill="#27295C"/>
<path d="M353.154 776.828L412.009 812.135V741.52L353.154 776.828Z" fill="#27295C"/>
<path d="M353.153 706.213L294.298 741.52L353.153 776.828V706.213Z" fill="white"/>
<path d="M353.154 847.443L412.009 812.135L353.154 776.828V847.443Z" fill="#27295C"/>
<path d="M353.154 776.828L412.009 741.52L353.154 706.213V776.828Z" fill="#27295C"/>
<path d="M294.298 741.52V812.135L353.153 776.828L294.298 741.52Z" fill="white"/>
<path d="M294.298 812.135L353.153 847.443V776.828L294.298 812.135Z" fill="#225CDC"/>
<path d="M588.596 776.828L647.452 812.135V741.52L588.596 776.828Z" fill="#27295C"/>
<path d="M588.596 706.213L529.74 741.52L588.596 776.828V706.213Z" fill="white"/>
<path d="M588.596 847.443L647.452 812.135L588.596 776.828V847.443Z" fill="#27295C"/>
<path d="M588.596 776.828L647.452 741.52L588.596 706.213V776.828Z" fill="#27295C"/>
<path d="M529.74 741.52V812.135L588.596 776.828L529.74 741.52Z" fill="white"/>
<path d="M529.74 812.135L588.596 847.443V776.828L529.74 812.135Z" fill="#225CDC"/>
<path d="M470.865 776.828L412.009 741.52V812.135L470.865 776.828Z" fill="white"/>
<path d="M470.865 847.443L529.741 812.135L470.865 776.828V847.443Z" fill="#225CDC"/>
<path d="M470.865 706.213L412.009 741.52L470.865 776.828V706.213Z" fill="white"/>
<path d="M470.865 776.828L412.009 812.135L470.865 847.443V776.828Z" fill="white"/>
<path d="M529.741 812.135V741.52L470.865 776.828L529.741 812.135Z" fill="#225CDC"/>
<path d="M529.741 741.52L470.865 706.213V776.828L529.741 741.52Z" fill="#27295C"/>
<path d="M706.307 776.828L647.451 741.52V812.135L706.307 776.828Z" fill="white"/>
<path d="M706.307 706.213L647.451 741.52L706.307 776.828V706.213Z" fill="white"/>
<path d="M706.307 776.828L647.451 812.135L706.307 847.443V776.828Z" fill="white"/>
<path d="M58.8556 882.75L0 847.443V918.058L58.8556 882.75Z" fill="white"/>
<path d="M58.8558 953.386L117.711 918.058L58.8558 882.75V953.386Z" fill="#225CDC"/>
<path d="M58.8556 812.135L0 847.443L58.8556 882.75V812.135Z" fill="white"/>
<path d="M58.8556 882.75L0 918.058L58.8556 953.386V882.75Z" fill="white"/>
<path d="M117.711 918.058V847.443L58.8558 882.75L117.711 918.058Z" fill="#225CDC"/>
<path d="M117.711 847.443L58.8558 812.135V882.75L117.711 847.443Z" fill="#27295C"/>
<path d="M294.298 882.75L353.154 918.058V847.443L294.298 882.75Z" fill="#225CDC"/>
<path d="M294.298 812.135L235.443 847.443L294.298 882.75V812.135Z" fill="white"/>
<path d="M294.298 953.386L353.154 918.058L294.298 882.75V953.386Z" fill="#225CDC"/>
<path d="M294.298 882.75L353.154 847.443L294.298 812.135V882.75Z" fill="#225CDC"/>
<path d="M235.443 847.443V918.058L294.298 882.75L235.443 847.443Z" fill="white"/>
<path d="M235.443 918.058L294.298 953.386V882.75L235.443 918.058Z" fill="#27295C"/>
<path d="M176.586 882.75L235.442 918.058V847.443L176.586 882.75Z" fill="white"/>
<path d="M176.587 812.135L117.711 847.443L176.587 882.75V812.135Z" fill="#225CDC"/>
<path d="M176.586 953.386L235.442 918.058L176.586 882.75V953.386Z" fill="white"/>
<path d="M176.586 882.75L235.442 847.443L176.586 812.135V882.75Z" fill="white"/>
<path d="M117.711 847.443V918.058L176.587 882.75L117.711 847.443Z" fill="#225CDC"/>
<path d="M117.711 918.058L176.587 953.386V882.75L117.711 918.058Z" fill="#27295C"/>
<path d="M412.009 882.75L470.865 918.058V847.443L412.009 882.75Z" fill="#225CDC"/>
<path d="M412.009 812.135L353.154 847.443L412.009 882.75V812.135Z" fill="white"/>
<path d="M412.009 953.386L470.865 918.058L412.009 882.75V953.386Z" fill="#225CDC"/>
<path d="M412.009 882.75L470.865 847.443L412.009 812.135V882.75Z" fill="#225CDC"/>
<path d="M353.154 847.443V918.058L412.009 882.75L353.154 847.443Z" fill="white"/>
<path d="M353.154 918.058L412.009 953.386V882.75L353.154 918.058Z" fill="#27295C"/>
<path d="M647.451 882.75L706.307 918.058V847.443L647.451 882.75Z" fill="#225CDC"/>
<path d="M647.451 812.135L588.595 847.443L647.451 882.75V812.135Z" fill="white"/>
<path d="M647.451 953.386L706.307 918.058L647.451 882.75V953.386Z" fill="#225CDC"/>
<path d="M647.451 882.75L706.307 847.443L647.451 812.135V882.75Z" fill="#225CDC"/>
<path d="M588.595 847.443V918.058L647.451 882.75L588.595 847.443Z" fill="white"/>
<path d="M588.595 918.058L647.451 953.386V882.75L588.595 918.058Z" fill="#27295C"/>
<path d="M529.74 882.75L588.595 918.058V847.443L529.74 882.75Z" fill="white"/>
<path d="M529.74 812.135L470.864 847.443L529.74 882.75V812.135Z" fill="#225CDC"/>
<path d="M529.74 953.386L588.595 918.058L529.74 882.75V953.386Z" fill="white"/>
<path d="M529.74 882.75L588.595 847.443L529.74 812.135V882.75Z" fill="white"/>
<path d="M470.864 847.443V918.058L529.74 882.75L470.864 847.443Z" fill="#225CDC"/>
<path d="M470.864 918.058L529.74 953.386V882.75L470.864 918.058Z" fill="#27295C"/>
<path d="M0 988.693L58.8556 1024V953.385L0 988.693Z" fill="#27295C"/>
<path d="M0 1024H58.8556L0 988.692V1024Z" fill="#27295C"/>
<path d="M0 988.693L58.8556 953.385L0 918.057V988.693Z" fill="#27295C"/>
<path d="M235.442 988.693L176.587 953.385V1024L235.442 988.693Z" fill="#225CDC"/>
<path d="M235.443 1024H294.298L235.443 988.692V1024Z" fill="white"/>
<path d="M235.442 918.057L176.587 953.385L235.442 988.693V918.057Z" fill="#225CDC"/>
<path d="M235.442 988.692L176.587 1024H235.442V988.692Z" fill="#225CDC"/>
<path d="M294.298 1024V953.385L235.443 988.693L294.298 1024Z" fill="white"/>
<path d="M294.298 953.385L235.443 918.057V988.693L294.298 953.385Z" fill="#27295C"/>
<path d="M117.711 988.693L58.8558 953.385V1024L117.711 988.693Z" fill="#225CDC"/>
<path d="M117.712 1024H176.587L117.712 988.692V1024Z" fill="white"/>
<path d="M117.711 918.057L58.8558 953.385L117.711 988.693V918.057Z" fill="#225CDC"/>
<path d="M117.711 988.692L58.8558 1024H117.711V988.692Z" fill="#225CDC"/>
<path d="M176.587 1024V953.385L117.712 988.693L176.587 1024Z" fill="white"/>
<path d="M176.587 953.385L117.712 918.057V988.693L176.587 953.385Z" fill="#27295C"/>
<path d="M353.154 988.693L412.009 1024V953.385L353.154 988.693Z" fill="#225CDC"/>
<path d="M353.153 918.057L294.298 953.385L353.153 988.693V918.057Z" fill="white"/>
<path d="M353.154 1024H412.009L353.154 988.692V1024Z" fill="#225CDC"/>
<path d="M353.154 988.693L412.009 953.385L353.154 918.057V988.693Z" fill="#225CDC"/>
<path d="M294.298 953.385V1024L353.153 988.693L294.298 953.385Z" fill="white"/>
<path d="M294.298 1024H353.153V988.692L294.298 1024Z" fill="#27295C"/>
<path d="M588.596 988.693L647.452 1024V953.385L588.596 988.693Z" fill="#225CDC"/>
<path d="M588.596 918.057L529.74 953.385L588.596 988.693V918.057Z" fill="white"/>
<path d="M588.596 1024H647.452L588.596 988.692V1024Z" fill="#225CDC"/>
<path d="M588.596 988.693L647.452 953.385L588.596 918.057V988.693Z" fill="#225CDC"/>
<path d="M529.74 953.385V1024L588.596 988.693L529.74 953.385Z" fill="white"/>
<path d="M529.74 1024H588.596V988.692L529.74 1024Z" fill="#27295C"/>
<path d="M470.865 988.693L529.741 1024V953.385L470.865 988.693Z" fill="#225CDC"/>
<path d="M470.865 918.057L412.009 953.385L470.865 988.693V918.057Z" fill="white"/>
<path d="M470.865 1024H529.741L470.865 988.692V1024Z" fill="#225CDC"/>
<path d="M470.865 988.693L529.741 953.385L470.865 918.057V988.693Z" fill="#225CDC"/>
<path d="M412.009 953.385V1024L470.865 988.693L412.009 953.385Z" fill="white"/>
<path d="M412.009 1024H470.865V988.692L412.009 1024Z" fill="#27295C"/>
<path d="M706.307 918.057L647.451 953.385L706.307 988.693V918.057Z" fill="white"/>
<path d="M647.451 953.385V1024L706.307 988.693L647.451 953.385Z" fill="white"/>
<path d="M647.451 1024H706.307V988.692L647.451 1024Z" fill="#225CDC"/>
</svg>
